<?xml version="1.0" encoding="iso-8859-1"?>
<!-- Uploaded to: SVG Repo, www.svgrepo.com, Generator: SVG Repo Mixer Tools -->
<svg version="1.1" id="Layer_1" xmlns="http://www.w3.org/2000/svg" xmlns:xlink="http://www.w3.org/1999/xlink" 
	 viewBox="0 0 512 512" xml:space="preserve">
<path style="fill:#EE2712;" d="M354.772,57.299v-28.65H157.228v28.65c-69.293,0-125.468,56.04-125.468,125.168v274.172
	C31.76,487.213,56.605,512,87.253,512h337.494c30.648,0,55.493-24.788,55.493-55.361V182.467
	C480.24,113.339,424.067,57.299,354.772,57.299z"/>
<path style="fill:#FF5D3D;" d="M256,28.649h98.772l0,0H157.228v28.65c-69.293,0-125.468,56.04-125.468,125.168v274.172
	C31.76,487.213,56.605,512,87.253,512H256V28.649z"/>
<path style="fill:#088690;" d="M396.963,28.649c0,15.823-12.826,28.649-28.65,28.649H143.687c-15.823,0-28.65-12.826-28.65-28.649
	l0,0C115.037,12.827,127.864,0,143.687,0h224.626C384.136,0,396.963,12.827,396.963,28.649L396.963,28.649z"/>
<g>
	<path style="fill:#0BAEBC;" d="M143.687,0c-15.823,0-28.65,12.826-28.65,28.649c0,15.824,12.827,28.65,28.65,28.65h31.467V0
		H143.687z"/>
	<rect x="229.052" style="fill:#0BAEBC;" width="53.897" height="57.299"/>
	<path style="fill:#0BAEBC;" d="M368.313,0h-31.467v57.299h31.467c15.823,0,28.65-12.826,28.65-28.65
		C396.963,12.826,384.136,0,368.313,0z"/>
</g>
<rect x="31.76" y="200.683" style="fill:#F7EE00;" width="326.039" height="225.646"/>
<rect x="31.76" y="200.683" style="fill:#FFFC99;" width="163.015" height="225.646"/>
<g>
	<rect x="225.343" y="243.931" style="fill:#088690;" width="101.878" height="31.347"/>
	<rect x="225.343" y="297.827" style="fill:#088690;" width="101.878" height="31.347"/>
	<rect x="225.343" y="351.723" style="fill:#088690;" width="101.878" height="31.347"/>
</g>
<path style="fill:#EE2712;" d="M129.491,262.269c-0.183,0-0.366,0.01-0.549,0.013V242.19H97.596v20.092
	c-0.183-0.002-0.366-0.013-0.55-0.013c-26.766,0-48.543,21.776-48.543,48.542v9.824c0,35.711,29.053,64.764,64.765,64.764
	s64.764-29.053,64.764-64.764v-9.824C178.033,284.045,156.257,262.269,129.491,262.269z"/>
<path style="fill:#FF5D3D;" d="M97.596,242.189v20.092c-0.183-0.002-0.366-0.013-0.55-0.013c-26.766,0-48.543,21.776-48.543,48.542
	v9.824c0,35.711,29.053,64.764,64.765,64.764v-143.21H97.596z"/>
</svg>