<?xml version="1.0" encoding="iso-8859-1"?>
<!-- Uploaded to: SVG Repo, www.svgrepo.com, Generator: SVG Repo Mixer Tools -->
<svg version="1.1" id="Layer_1" xmlns="http://www.w3.org/2000/svg" xmlns:xlink="http://www.w3.org/1999/xlink" 
	 viewBox="0 0 480 480" xml:space="preserve">
<path style="fill:#4AA1B5;" d="M200,176v280c0,8.8-7.2,16-16,16H24c-8.8,0-16-7.2-16-16V176c0-8.8,7.2-16,16-16h160
	C192.8,160,200,167.2,200,176z"/>
<rect x="40" y="160" style="fill:#6EB4C4;" width="16" height="312"/>
<rect x="24" y="128" style="fill:#1D8AA3;" width="160" height="32"/>
<rect x="40" y="128" style="fill:#6EB4C4;" width="16" height="32"/>
<path style="fill:#D2E8ED;" d="M200,104v24H8v-24C8,50.96,50.96,8,104,8c26.56,0,50.56,10.72,67.92,28.08S200,77.44,200,104z"/>
<path style="fill:#E4F1F4;" d="M24,120c0-53.04,42.96-96,96-96c22.472,0,43.056,7.736,59.392,20.608
	c-2.344-2.976-4.8-5.856-7.472-8.528C154.56,18.72,130.56,8,104,8C50.96,8,8,50.96,8,104v24h16V120z"/>
<g>
	<path style="fill:#132C47;" d="M200,136c4.416,0,8-3.576,8-8v-24c0-27.832-10.808-53.96-30.424-73.576S131.824,0,104,0
		C46.656,0,0,46.656,0,104v24c0,4.424,3.584,8,8,8h8v17.472C6.712,156.784,0,165.584,0,176v280c0,13.232,10.768,24,24,24h160
		c13.232,0,24-10.768,24-24V176c0-10.416-6.712-19.216-16-22.528V136H200z M16,104c0-48.52,39.48-88,88-88
		c23.552,0,45.664,9.144,62.264,25.736C182.856,58.328,192,80.448,192,104v16h-8H24h-8V104z M184,464H24c-4.408,0-8-3.584-8-8V216
		h88c4.416,0,8-3.576,8-8s-3.584-8-8-8H16v-24c0-4.416,3.592-8,8-8h160c4.408,0,8,3.584,8,8v240h-88c-4.416,0-8,3.576-8,8
		s3.584,8,8,8h88v24C192,460.416,188.408,464,184,464z M176,152H32v-16h144V152z"/>
	<path style="fill:#132C47;" d="M112,368H64c-4.416,0-8,3.576-8,8s3.584,8,8,8h48c22.056,0,40-17.944,40-40s-17.944-40-40-40H92
		c-11.024,0-20-8.968-20-20s8.976-20,20-20h52c4.416,0,8-3.576,8-8s-3.584-8-8-8H92c-19.848,0-36,16.152-36,36s16.152,36,36,36h20
		c13.232,0,24,10.768,24,24S125.232,368,112,368z"/>
	<path style="fill:#132C47;" d="M136,216h16c4.416,0,8-3.576,8-8s-3.584-8-8-8h-16c-4.416,0-8,3.576-8,8S131.584,216,136,216z"/>
	<path style="fill:#132C47;" d="M72,416H56c-4.416,0-8,3.576-8,8s3.584,8,8,8h16c4.416,0,8-3.576,8-8S76.416,416,72,416z"/>
	<circle style="fill:#132C47;" cx="72" cy="64" r="8"/>
	<circle style="fill:#132C47;" cx="104" cy="88" r="8"/>
	<circle style="fill:#132C47;" cx="104" cy="40" r="8"/>
	<circle style="fill:#132C47;" cx="136" cy="64" r="8"/>
</g>
<path style="fill:#FCB23C;" d="M472,176v280c0,8.8-7.2,16-16,16H296c-8.8,0-16-7.2-16-16V176c0-8.8,7.2-16,16-16h160
	C464.8,160,472,167.2,472,176z"/>
<rect x="312" y="160" style="fill:#FDC163;" width="16" height="312"/>
<rect x="296" y="128" style="fill:#BD852D;" width="160" height="32"/>
<rect x="312" y="128" style="fill:#CA9D57;" width="16" height="32"/>
<path id="SVGCleanerId_0" style="fill:#FEF0D8;" d="M472,104v24H280v-24c0-53.04,42.96-96,96-96c26.56,0,50.56,10.72,67.92,28.08
	C461.28,53.44,472,77.44,472,104z"/>
<path style="fill:none;stroke:#132C47;stroke-width:2;stroke-linecap:round;stroke-linejoin:round;stroke-miterlimit:10;" d="
	M472,128H280v-24c0-53.04,42.96-96,96-96c26.56,0,50.56,10.72,67.92,28.08C461.28,53.44,472,77.44,472,104V128z"/>
<g>
	<path id="SVGCleanerId_0_1_" style="fill:#FEF0D8;" d="M472,104v24H280v-24c0-53.04,42.96-96,96-96
		c26.56,0,50.56,10.72,67.92,28.08C461.28,53.44,472,77.44,472,104z"/>
</g>
<path style="fill:#FEF6E8;" d="M304,113.336c0-53.04,42.96-96,96-96c7.864,0,15.456,1.04,22.76,2.816C408.928,12.432,393,8,376,8
	c-53.04,0-96,42.96-96,96v24h24V113.336z"/>
<g>
	<circle style="fill:#132C47;" cx="344" cy="64" r="8"/>
	<circle style="fill:#132C47;" cx="376" cy="88" r="8"/>
	<circle style="fill:#132C47;" cx="376" cy="40" r="8"/>
	<circle style="fill:#132C47;" cx="408" cy="64" r="8"/>
	<path style="fill:#132C47;" d="M472,136c4.416,0,8-3.576,8-8v-24c0-27.832-10.808-53.96-30.424-73.576S403.824,0,376,0
		c-57.344,0-104,46.656-104,104v24c0,4.424,3.584,8,8,8h8v17.472c-9.288,3.312-16,12.112-16,22.528v280c0,13.232,10.768,24,24,24
		h160c13.232,0,24-10.768,24-24V176c0-10.416-6.712-19.216-16-22.528V136H472z M288,104c0-48.52,39.48-88,88-88
		c23.552,0,45.664,9.144,62.264,25.736C454.856,58.328,464,80.448,464,104v16h-8H296h-8V104z M456,464H296c-4.408,0-8-3.584-8-8V216
		h88c4.416,0,8-3.576,8-8s-3.584-8-8-8h-88v-24c0-4.416,3.592-8,8-8h160c4.408,0,8,3.584,8,8v240h-88c-4.416,0-8,3.576-8,8
		s3.584,8,8,8h88v24C464,460.416,460.408,464,456,464z M448,152H304v-16h144V152z"/>
	<path style="fill:#132C47;" d="M408,216h16c4.416,0,8-3.576,8-8s-3.584-8-8-8h-16c-4.416,0-8,3.576-8,8S403.584,216,408,216z"/>
	<path style="fill:#132C47;" d="M344,416h-16c-4.416,0-8,3.576-8,8s3.584,8,8,8h16c4.416,0,8-3.576,8-8S348.416,416,344,416z"/>
	<path style="fill:#132C47;" d="M392,320c22.056,0,40-17.944,40-40s-17.944-40-40-40h-32c-13.232,0-24,10.768-24,24v48v72
		c0,4.424,3.584,8,8,8s8-3.576,8-8v-64H392z M352,264c0-4.416,3.592-8,8-8h32c13.232,0,24,10.768,24,24s-10.768,24-24,24h-40V264z"
		/>
</g>
</svg>