<?xml version="1.0" encoding="iso-8859-1"?>
<!-- Uploaded to: SVG Repo, www.svgrepo.com, Generator: SVG Repo Mixer Tools -->
<svg fill="#000000" height="800px" width="800px" version="1.1" id="Layer_1" xmlns="http://www.w3.org/2000/svg" xmlns:xlink="http://www.w3.org/1999/xlink" 
	 viewBox="0 0 480 480" xml:space="preserve">
<g>
	<g>
		<g>
			<path d="M104,0C46.656,0,0,46.656,0,104v24c0,4.424,3.584,8,8,8h8v17.472C6.712,156.784,0,165.584,0,176v280
				c0,13.232,10.768,24,24,24h160c13.232,0,24-10.768,24-24V176c0-10.416-6.712-19.216-16-22.528V136h8c4.416,0,8-3.576,8-8v-24
				c0-27.832-10.808-53.96-30.424-73.576C157.96,10.808,131.824,0,104,0z M192,416h-88c-4.416,0-8,3.576-8,8s3.584,8,8,8h88v24
				c0,4.416-3.592,8-8,8H24c-4.408,0-8-3.584-8-8V216h88c4.416,0,8-3.576,8-8s-3.584-8-8-8H16v-24c0-4.416,3.592-8,8-8h160
				c4.408,0,8,3.584,8,8V416z M32,152v-16h144v16H32z M192,120h-8H24h-8v-16c0-48.52,39.48-88,88-88
				c23.552,0,45.664,9.144,62.264,25.736C182.856,58.328,192,80.448,192,104V120z"/>
			<path d="M92,264h52c4.416,0,8-3.576,8-8s-3.584-8-8-8H92c-19.848,0-36,16.152-36,36c0,19.848,16.152,36,36,36h20
				c13.232,0,24,10.768,24,24s-10.768,24-24,24H64c-4.416,0-8,3.576-8,8s3.584,8,8,8h48c22.056,0,40-17.944,40-40
				c0-22.056-17.944-40-40-40H92c-11.024,0-20-8.968-20-20C72,272.968,80.976,264,92,264z"/>
			<path d="M152,200h-16c-4.416,0-8,3.576-8,8s3.584,8,8,8h16c4.416,0,8-3.576,8-8S156.416,200,152,200z"/>
			<path d="M72,416H56c-4.416,0-8,3.576-8,8s3.584,8,8,8h16c4.416,0,8-3.576,8-8S76.416,416,72,416z"/>
			<circle cx="72" cy="64" r="8"/>
			<circle cx="104" cy="88" r="8"/>
			<circle cx="104" cy="40" r="8"/>
			<circle cx="136" cy="64" r="8"/>
			<path d="M472,136c4.416,0,8-3.576,8-8v-24c0-27.832-10.808-53.96-30.424-73.576C429.96,10.808,403.824,0,376,0
				c-57.344,0-104,46.656-104,104v24c0,4.424,3.584,8,8,8h8v17.472c-9.288,3.312-16,12.112-16,22.528v280c0,13.232,10.768,24,24,24
				h160c13.232,0,24-10.768,24-24V176c0-10.416-6.712-19.216-16-22.528V136H472z M464,416h-88c-4.416,0-8,3.576-8,8s3.584,8,8,8h88
				v24c0,4.416-3.592,8-8,8H296c-4.408,0-8-3.584-8-8V216h88c4.416,0,8-3.576,8-8s-3.584-8-8-8h-88v-24c0-4.416,3.592-8,8-8h160
				c4.408,0,8,3.584,8,8V416z M304,152v-16h144v16H304z M456,120H296h-8v-16c0-48.52,39.48-88,88-88
				c23.552,0,45.664,9.144,62.264,25.736C454.856,58.328,464,80.448,464,104v16H456z"/>
			<path d="M424,200h-16c-4.416,0-8,3.576-8,8s3.584,8,8,8h16c4.416,0,8-3.576,8-8S428.416,200,424,200z"/>
			<path d="M344,416h-16c-4.416,0-8,3.576-8,8s3.584,8,8,8h16c4.416,0,8-3.576,8-8S348.416,416,344,416z"/>
			<circle cx="344" cy="64" r="8"/>
			<circle cx="376" cy="88" r="8"/>
			<circle cx="376" cy="40" r="8"/>
			<circle cx="408" cy="64" r="8"/>
			<path d="M392,240h-32c-13.232,0-24,10.768-24,24v48v72c0,4.424,3.584,8,8,8c4.416,0,8-3.576,8-8v-64h40c22.056,0,40-17.944,40-40
				C432,257.944,414.056,240,392,240z M392,304h-40v-40c0-4.416,3.592-8,8-8h32c13.232,0,24,10.768,24,24S405.232,304,392,304z"/>
		</g>
	</g>
</g>
</svg>